<mxfile host="app.diagrams.net" agent="Mozilla/5.0 (X11; Linux x86_64) AppleWebKit/537.36 (KHTML, like Gecko) Chrome/139.0.0.0 Safari/537.36" version="28.2.4">
  <diagram name="Page-1" id="s3qUfst04Xn6BXHx2fDA">
    <mxGraphModel dx="2017" dy="1167" grid="1" gridSize="10" guides="1" tooltips="1" connect="1" arrows="1" fold="1" page="1" pageScale="1" pageWidth="1169" pageHeight="1654" background="none" math="0" shadow="0">
      <root>
        <mxCell id="0" />
        <mxCell id="1" parent="0" />
        <mxCell id="kvbrF2QY3DVPnfHmgTct-6" value="" style="edgeStyle=orthogonalEdgeStyle;rounded=0;orthogonalLoop=1;jettySize=auto;html=1;" parent="1" source="kvbrF2QY3DVPnfHmgTct-3" target="kvbrF2QY3DVPnfHmgTct-5" edge="1">
          <mxGeometry relative="1" as="geometry" />
        </mxCell>
        <mxCell id="XKMVD-KwKPAGE6R3IPx5-100" style="edgeStyle=orthogonalEdgeStyle;rounded=0;orthogonalLoop=1;jettySize=auto;html=1;exitX=0;exitY=0.5;exitDx=0;exitDy=0;entryX=1;entryY=0.5;entryDx=0;entryDy=0;" edge="1" parent="1" source="kvbrF2QY3DVPnfHmgTct-3" target="XKMVD-KwKPAGE6R3IPx5-82">
          <mxGeometry relative="1" as="geometry" />
        </mxCell>
        <mxCell id="kvbrF2QY3DVPnfHmgTct-3" value="SETUP START" style="rounded=1;whiteSpace=wrap;html=1;" parent="1" vertex="1">
          <mxGeometry x="270" y="70" width="120" height="60" as="geometry" />
        </mxCell>
        <mxCell id="kvbrF2QY3DVPnfHmgTct-14" value="" style="edgeStyle=orthogonalEdgeStyle;rounded=0;orthogonalLoop=1;jettySize=auto;html=1;" parent="1" source="kvbrF2QY3DVPnfHmgTct-5" target="kvbrF2QY3DVPnfHmgTct-13" edge="1">
          <mxGeometry relative="1" as="geometry" />
        </mxCell>
        <mxCell id="XKMVD-KwKPAGE6R3IPx5-111" style="edgeStyle=orthogonalEdgeStyle;rounded=0;orthogonalLoop=1;jettySize=auto;html=1;exitX=0;exitY=0.25;exitDx=0;exitDy=0;entryX=0;entryY=0.75;entryDx=0;entryDy=0;" edge="1" parent="1" source="kvbrF2QY3DVPnfHmgTct-5" target="kvbrF2QY3DVPnfHmgTct-3">
          <mxGeometry relative="1" as="geometry" />
        </mxCell>
        <mxCell id="kvbrF2QY3DVPnfHmgTct-5" value="HEIGHT OF BLIND IN FT/METER?" style="whiteSpace=wrap;html=1;rounded=1;" parent="1" vertex="1">
          <mxGeometry x="270" y="152.5" width="120" height="60" as="geometry" />
        </mxCell>
        <mxCell id="kvbrF2QY3DVPnfHmgTct-11" style="edgeStyle=orthogonalEdgeStyle;rounded=0;orthogonalLoop=1;jettySize=auto;html=1;" parent="1" source="kvbrF2QY3DVPnfHmgTct-5" target="kvbrF2QY3DVPnfHmgTct-5" edge="1">
          <mxGeometry relative="1" as="geometry" />
        </mxCell>
        <mxCell id="kvbrF2QY3DVPnfHmgTct-20" value="" style="edgeStyle=orthogonalEdgeStyle;rounded=0;orthogonalLoop=1;jettySize=auto;html=1;" parent="1" source="kvbrF2QY3DVPnfHmgTct-13" target="kvbrF2QY3DVPnfHmgTct-19" edge="1">
          <mxGeometry relative="1" as="geometry" />
        </mxCell>
        <mxCell id="XKMVD-KwKPAGE6R3IPx5-109" style="edgeStyle=orthogonalEdgeStyle;rounded=0;orthogonalLoop=1;jettySize=auto;html=1;exitX=0;exitY=0.25;exitDx=0;exitDy=0;entryX=0;entryY=0.75;entryDx=0;entryDy=0;" edge="1" parent="1" source="kvbrF2QY3DVPnfHmgTct-13" target="kvbrF2QY3DVPnfHmgTct-5">
          <mxGeometry relative="1" as="geometry" />
        </mxCell>
        <mxCell id="kvbrF2QY3DVPnfHmgTct-13" value="HEIGHT OF WINDOW IN FT/METER?" style="whiteSpace=wrap;html=1;rounded=1;" parent="1" vertex="1">
          <mxGeometry x="270" y="230" width="120" height="60" as="geometry" />
        </mxCell>
        <mxCell id="kvbrF2QY3DVPnfHmgTct-17" style="edgeStyle=orthogonalEdgeStyle;rounded=0;orthogonalLoop=1;jettySize=auto;html=1;" parent="1" source="kvbrF2QY3DVPnfHmgTct-13" target="kvbrF2QY3DVPnfHmgTct-13" edge="1">
          <mxGeometry relative="1" as="geometry" />
        </mxCell>
        <mxCell id="kvbrF2QY3DVPnfHmgTct-18" value="if not +ve float or greater than blind height" style="text;html=1;align=center;verticalAlign=middle;whiteSpace=wrap;rounded=0;" parent="1" vertex="1">
          <mxGeometry x="410" y="230" width="70" height="65" as="geometry" />
        </mxCell>
        <mxCell id="XKMVD-KwKPAGE6R3IPx5-93" style="edgeStyle=orthogonalEdgeStyle;rounded=0;orthogonalLoop=1;jettySize=auto;html=1;exitX=0.5;exitY=1;exitDx=0;exitDy=0;entryX=0.5;entryY=0;entryDx=0;entryDy=0;" edge="1" parent="1" source="kvbrF2QY3DVPnfHmgTct-19" target="XKMVD-KwKPAGE6R3IPx5-91">
          <mxGeometry relative="1" as="geometry" />
        </mxCell>
        <mxCell id="XKMVD-KwKPAGE6R3IPx5-106" style="edgeStyle=orthogonalEdgeStyle;rounded=0;orthogonalLoop=1;jettySize=auto;html=1;exitX=0;exitY=0.25;exitDx=0;exitDy=0;entryX=0;entryY=0.75;entryDx=0;entryDy=0;" edge="1" parent="1" source="kvbrF2QY3DVPnfHmgTct-19" target="kvbrF2QY3DVPnfHmgTct-13">
          <mxGeometry relative="1" as="geometry" />
        </mxCell>
        <mxCell id="kvbrF2QY3DVPnfHmgTct-19" value="NUMBER OF LIGHT SENSORS?" style="whiteSpace=wrap;html=1;rounded=1;" parent="1" vertex="1">
          <mxGeometry x="270" y="310" width="120" height="60" as="geometry" />
        </mxCell>
        <mxCell id="kvbrF2QY3DVPnfHmgTct-21" style="edgeStyle=orthogonalEdgeStyle;rounded=0;orthogonalLoop=1;jettySize=auto;html=1;" parent="1" source="kvbrF2QY3DVPnfHmgTct-19" target="kvbrF2QY3DVPnfHmgTct-19" edge="1">
          <mxGeometry relative="1" as="geometry" />
        </mxCell>
        <mxCell id="kvbrF2QY3DVPnfHmgTct-22" value="if not natural number" style="text;html=1;align=center;verticalAlign=middle;whiteSpace=wrap;rounded=0;" parent="1" vertex="1">
          <mxGeometry x="410" y="317.5" width="70" height="45" as="geometry" />
        </mxCell>
        <mxCell id="kvbrF2QY3DVPnfHmgTct-24" value="if not positive float" style="text;html=1;align=center;verticalAlign=middle;whiteSpace=wrap;rounded=0;" parent="1" vertex="1">
          <mxGeometry x="410" y="160" width="70" height="45" as="geometry" />
        </mxCell>
        <mxCell id="XKMVD-KwKPAGE6R3IPx5-8" value="" style="edgeStyle=orthogonalEdgeStyle;rounded=0;orthogonalLoop=1;jettySize=auto;html=1;" edge="1" parent="1" source="XKMVD-KwKPAGE6R3IPx5-1" target="XKMVD-KwKPAGE6R3IPx5-7">
          <mxGeometry relative="1" as="geometry" />
        </mxCell>
        <mxCell id="XKMVD-KwKPAGE6R3IPx5-95" value="" style="edgeStyle=orthogonalEdgeStyle;rounded=0;orthogonalLoop=1;jettySize=auto;html=1;" edge="1" parent="1" source="XKMVD-KwKPAGE6R3IPx5-1" target="XKMVD-KwKPAGE6R3IPx5-94">
          <mxGeometry relative="1" as="geometry" />
        </mxCell>
        <mxCell id="XKMVD-KwKPAGE6R3IPx5-1" value="START" style="whiteSpace=wrap;html=1;rounded=1;" vertex="1" parent="1">
          <mxGeometry x="480" y="500" width="120" height="60" as="geometry" />
        </mxCell>
        <mxCell id="XKMVD-KwKPAGE6R3IPx5-12" value="" style="edgeStyle=orthogonalEdgeStyle;rounded=0;orthogonalLoop=1;jettySize=auto;html=1;" edge="1" parent="1" source="XKMVD-KwKPAGE6R3IPx5-7" target="XKMVD-KwKPAGE6R3IPx5-11">
          <mxGeometry relative="1" as="geometry" />
        </mxCell>
        <mxCell id="XKMVD-KwKPAGE6R3IPx5-16" value="" style="edgeStyle=orthogonalEdgeStyle;rounded=0;orthogonalLoop=1;jettySize=auto;html=1;" edge="1" parent="1" source="XKMVD-KwKPAGE6R3IPx5-7" target="XKMVD-KwKPAGE6R3IPx5-15">
          <mxGeometry relative="1" as="geometry" />
        </mxCell>
        <mxCell id="XKMVD-KwKPAGE6R3IPx5-7" value="Mode?" style="rhombus;whiteSpace=wrap;html=1;rounded=1;" vertex="1" parent="1">
          <mxGeometry x="665" y="490" width="80" height="80" as="geometry" />
        </mxCell>
        <mxCell id="XKMVD-KwKPAGE6R3IPx5-32" value="" style="edgeStyle=orthogonalEdgeStyle;rounded=0;orthogonalLoop=1;jettySize=auto;html=1;" edge="1" parent="1" source="XKMVD-KwKPAGE6R3IPx5-11" target="XKMVD-KwKPAGE6R3IPx5-31">
          <mxGeometry relative="1" as="geometry" />
        </mxCell>
        <mxCell id="XKMVD-KwKPAGE6R3IPx5-41" style="edgeStyle=orthogonalEdgeStyle;rounded=0;orthogonalLoop=1;jettySize=auto;html=1;exitX=0;exitY=0.5;exitDx=0;exitDy=0;entryX=1;entryY=0.5;entryDx=0;entryDy=0;" edge="1" parent="1" source="XKMVD-KwKPAGE6R3IPx5-11" target="XKMVD-KwKPAGE6R3IPx5-25">
          <mxGeometry relative="1" as="geometry" />
        </mxCell>
        <mxCell id="XKMVD-KwKPAGE6R3IPx5-11" value="&lt;font style=&quot;font-size: 10px;&quot;&gt;Is up arrow pressed?&lt;/font&gt;" style="rhombus;whiteSpace=wrap;html=1;rounded=1;" vertex="1" parent="1">
          <mxGeometry x="665" y="630" width="80" height="80" as="geometry" />
        </mxCell>
        <mxCell id="XKMVD-KwKPAGE6R3IPx5-14" value="MANUAL" style="text;html=1;align=center;verticalAlign=middle;whiteSpace=wrap;rounded=0;" vertex="1" parent="1">
          <mxGeometry x="635" y="570" width="75" height="30" as="geometry" />
        </mxCell>
        <mxCell id="XKMVD-KwKPAGE6R3IPx5-18" style="edgeStyle=orthogonalEdgeStyle;rounded=0;orthogonalLoop=1;jettySize=auto;html=1;exitX=0.5;exitY=1;exitDx=0;exitDy=0;entryX=1;entryY=0.5;entryDx=0;entryDy=0;" edge="1" parent="1" source="XKMVD-KwKPAGE6R3IPx5-15" target="XKMVD-KwKPAGE6R3IPx5-11">
          <mxGeometry relative="1" as="geometry" />
        </mxCell>
        <mxCell id="XKMVD-KwKPAGE6R3IPx5-127" value="" style="edgeStyle=orthogonalEdgeStyle;rounded=0;orthogonalLoop=1;jettySize=auto;html=1;" edge="1" parent="1" source="XKMVD-KwKPAGE6R3IPx5-15" target="XKMVD-KwKPAGE6R3IPx5-126">
          <mxGeometry relative="1" as="geometry" />
        </mxCell>
        <mxCell id="XKMVD-KwKPAGE6R3IPx5-15" value="&lt;font style=&quot;font-size: 9px;&quot;&gt;Arrow buttons pressed?&lt;/font&gt;" style="rhombus;whiteSpace=wrap;html=1;rounded=1;" vertex="1" parent="1">
          <mxGeometry x="825" y="490" width="80" height="80" as="geometry" />
        </mxCell>
        <mxCell id="XKMVD-KwKPAGE6R3IPx5-19" value="AUTOMATIC" style="text;html=1;align=center;verticalAlign=middle;whiteSpace=wrap;rounded=0;" vertex="1" parent="1">
          <mxGeometry x="745" y="500" width="75" height="30" as="geometry" />
        </mxCell>
        <mxCell id="XKMVD-KwKPAGE6R3IPx5-46" style="edgeStyle=orthogonalEdgeStyle;rounded=0;orthogonalLoop=1;jettySize=auto;html=1;exitX=0.5;exitY=0;exitDx=0;exitDy=0;entryX=0.5;entryY=0;entryDx=0;entryDy=0;" edge="1" parent="1" source="XKMVD-KwKPAGE6R3IPx5-20" target="XKMVD-KwKPAGE6R3IPx5-11">
          <mxGeometry relative="1" as="geometry">
            <mxPoint x="700" y="610" as="targetPoint" />
            <Array as="points">
              <mxPoint x="400" y="610" />
              <mxPoint x="705" y="610" />
            </Array>
          </mxGeometry>
        </mxCell>
        <mxCell id="XKMVD-KwKPAGE6R3IPx5-20" value="Roll up shade by 1 level" style="whiteSpace=wrap;html=1;rounded=1;" vertex="1" parent="1">
          <mxGeometry x="340" y="640" width="120" height="60" as="geometry" />
        </mxCell>
        <mxCell id="XKMVD-KwKPAGE6R3IPx5-39" value="" style="edgeStyle=orthogonalEdgeStyle;rounded=0;orthogonalLoop=1;jettySize=auto;html=1;" edge="1" parent="1" source="XKMVD-KwKPAGE6R3IPx5-25" target="XKMVD-KwKPAGE6R3IPx5-38">
          <mxGeometry relative="1" as="geometry" />
        </mxCell>
        <mxCell id="XKMVD-KwKPAGE6R3IPx5-42" style="edgeStyle=orthogonalEdgeStyle;rounded=0;orthogonalLoop=1;jettySize=auto;html=1;exitX=0;exitY=0.5;exitDx=0;exitDy=0;entryX=1;entryY=0.5;entryDx=0;entryDy=0;" edge="1" parent="1" source="XKMVD-KwKPAGE6R3IPx5-25" target="XKMVD-KwKPAGE6R3IPx5-20">
          <mxGeometry relative="1" as="geometry" />
        </mxCell>
        <mxCell id="XKMVD-KwKPAGE6R3IPx5-25" value="Max Level?" style="rhombus;whiteSpace=wrap;html=1;rounded=1;" vertex="1" parent="1">
          <mxGeometry x="510" y="630" width="80" height="80" as="geometry" />
        </mxCell>
        <mxCell id="XKMVD-KwKPAGE6R3IPx5-28" value="YES" style="text;html=1;align=center;verticalAlign=middle;whiteSpace=wrap;rounded=0;" vertex="1" parent="1">
          <mxGeometry x="600" y="640" width="75" height="30" as="geometry" />
        </mxCell>
        <mxCell id="XKMVD-KwKPAGE6R3IPx5-30" value="NO" style="text;html=1;align=center;verticalAlign=middle;whiteSpace=wrap;rounded=0;" vertex="1" parent="1">
          <mxGeometry x="450" y="640" width="75" height="30" as="geometry" />
        </mxCell>
        <mxCell id="XKMVD-KwKPAGE6R3IPx5-36" value="" style="edgeStyle=orthogonalEdgeStyle;rounded=0;orthogonalLoop=1;jettySize=auto;html=1;" edge="1" parent="1" source="XKMVD-KwKPAGE6R3IPx5-31">
          <mxGeometry relative="1" as="geometry">
            <mxPoint x="705" y="940" as="targetPoint" />
          </mxGeometry>
        </mxCell>
        <mxCell id="XKMVD-KwKPAGE6R3IPx5-66" style="edgeStyle=orthogonalEdgeStyle;rounded=0;orthogonalLoop=1;jettySize=auto;html=1;exitX=1;exitY=0.5;exitDx=0;exitDy=0;entryX=1;entryY=0.5;entryDx=0;entryDy=0;" edge="1" parent="1" source="XKMVD-KwKPAGE6R3IPx5-31" target="XKMVD-KwKPAGE6R3IPx5-15">
          <mxGeometry relative="1" as="geometry" />
        </mxCell>
        <mxCell id="XKMVD-KwKPAGE6R3IPx5-31" value="&lt;font style=&quot;font-size: 9px;&quot;&gt;Is down arrow pressed?&lt;/font&gt;" style="rhombus;whiteSpace=wrap;html=1;rounded=1;" vertex="1" parent="1">
          <mxGeometry x="665" y="790" width="80" height="80" as="geometry" />
        </mxCell>
        <mxCell id="XKMVD-KwKPAGE6R3IPx5-33" value="NO" style="text;html=1;align=center;verticalAlign=middle;whiteSpace=wrap;rounded=0;" vertex="1" parent="1">
          <mxGeometry x="680" y="720" width="75" height="30" as="geometry" />
        </mxCell>
        <mxCell id="XKMVD-KwKPAGE6R3IPx5-37" value="YES" style="text;html=1;align=center;verticalAlign=middle;whiteSpace=wrap;rounded=0;" vertex="1" parent="1">
          <mxGeometry x="680" y="890" width="75" height="30" as="geometry" />
        </mxCell>
        <mxCell id="XKMVD-KwKPAGE6R3IPx5-45" style="edgeStyle=orthogonalEdgeStyle;rounded=0;orthogonalLoop=1;jettySize=auto;html=1;exitX=0;exitY=0.5;exitDx=0;exitDy=0;" edge="1" parent="1" source="XKMVD-KwKPAGE6R3IPx5-38">
          <mxGeometry relative="1" as="geometry">
            <mxPoint x="400" y="610" as="targetPoint" />
            <Array as="points">
              <mxPoint x="270" y="830" />
              <mxPoint x="270" y="610" />
            </Array>
          </mxGeometry>
        </mxCell>
        <mxCell id="XKMVD-KwKPAGE6R3IPx5-38" value="ERR: Max height reached" style="ellipse;whiteSpace=wrap;html=1;rounded=1;" vertex="1" parent="1">
          <mxGeometry x="510" y="790" width="80" height="80" as="geometry" />
        </mxCell>
        <mxCell id="XKMVD-KwKPAGE6R3IPx5-40" value="YES" style="text;html=1;align=center;verticalAlign=middle;whiteSpace=wrap;rounded=0;" vertex="1" parent="1">
          <mxGeometry x="525" y="730" width="75" height="30" as="geometry" />
        </mxCell>
        <mxCell id="XKMVD-KwKPAGE6R3IPx5-51" style="edgeStyle=orthogonalEdgeStyle;rounded=0;orthogonalLoop=1;jettySize=auto;html=1;exitX=0;exitY=0.5;exitDx=0;exitDy=0;entryX=1;entryY=0.5;entryDx=0;entryDy=0;" edge="1" parent="1" source="XKMVD-KwKPAGE6R3IPx5-47" target="XKMVD-KwKPAGE6R3IPx5-48">
          <mxGeometry relative="1" as="geometry" />
        </mxCell>
        <mxCell id="XKMVD-KwKPAGE6R3IPx5-57" style="edgeStyle=orthogonalEdgeStyle;rounded=0;orthogonalLoop=1;jettySize=auto;html=1;exitX=0.5;exitY=1;exitDx=0;exitDy=0;entryX=1;entryY=0.5;entryDx=0;entryDy=0;" edge="1" parent="1" source="XKMVD-KwKPAGE6R3IPx5-47" target="XKMVD-KwKPAGE6R3IPx5-56">
          <mxGeometry relative="1" as="geometry" />
        </mxCell>
        <mxCell id="XKMVD-KwKPAGE6R3IPx5-47" value="Min Level?" style="rhombus;whiteSpace=wrap;html=1;rounded=1;" vertex="1" parent="1">
          <mxGeometry x="665" y="940" width="80" height="80" as="geometry" />
        </mxCell>
        <mxCell id="XKMVD-KwKPAGE6R3IPx5-52" style="edgeStyle=orthogonalEdgeStyle;rounded=0;orthogonalLoop=1;jettySize=auto;html=1;" edge="1" parent="1" source="XKMVD-KwKPAGE6R3IPx5-48">
          <mxGeometry relative="1" as="geometry">
            <mxPoint x="270" y="830" as="targetPoint" />
          </mxGeometry>
        </mxCell>
        <mxCell id="XKMVD-KwKPAGE6R3IPx5-48" value="ERR: Min height reached" style="ellipse;whiteSpace=wrap;html=1;rounded=1;" vertex="1" parent="1">
          <mxGeometry x="510" y="940" width="80" height="80" as="geometry" />
        </mxCell>
        <mxCell id="XKMVD-KwKPAGE6R3IPx5-49" value="YES" style="text;html=1;align=center;verticalAlign=middle;whiteSpace=wrap;rounded=0;" vertex="1" parent="1">
          <mxGeometry x="590" y="950" width="75" height="30" as="geometry" />
        </mxCell>
        <mxCell id="XKMVD-KwKPAGE6R3IPx5-53" value="YES" style="text;html=1;align=center;verticalAlign=middle;whiteSpace=wrap;rounded=0;" vertex="1" parent="1">
          <mxGeometry x="810" y="570" width="75" height="30" as="geometry" />
        </mxCell>
        <mxCell id="XKMVD-KwKPAGE6R3IPx5-55" value="NO" style="text;html=1;align=center;verticalAlign=middle;whiteSpace=wrap;rounded=0;" vertex="1" parent="1">
          <mxGeometry x="745" y="800" width="75" height="30" as="geometry" />
        </mxCell>
        <mxCell id="XKMVD-KwKPAGE6R3IPx5-59" style="edgeStyle=orthogonalEdgeStyle;rounded=0;orthogonalLoop=1;jettySize=auto;html=1;exitX=0;exitY=0.5;exitDx=0;exitDy=0;" edge="1" parent="1" source="XKMVD-KwKPAGE6R3IPx5-56">
          <mxGeometry relative="1" as="geometry">
            <mxPoint x="270" y="980" as="targetPoint" />
          </mxGeometry>
        </mxCell>
        <mxCell id="XKMVD-KwKPAGE6R3IPx5-56" value="Roll down shade by 1 level" style="whiteSpace=wrap;html=1;rounded=1;" vertex="1" parent="1">
          <mxGeometry x="490" y="1080" width="120" height="60" as="geometry" />
        </mxCell>
        <mxCell id="XKMVD-KwKPAGE6R3IPx5-58" value="NO" style="text;html=1;align=center;verticalAlign=middle;whiteSpace=wrap;rounded=0;" vertex="1" parent="1">
          <mxGeometry x="690" y="1040" width="75" height="30" as="geometry" />
        </mxCell>
        <mxCell id="XKMVD-KwKPAGE6R3IPx5-70" style="edgeStyle=orthogonalEdgeStyle;rounded=0;orthogonalLoop=1;jettySize=auto;html=1;exitX=0;exitY=0.5;exitDx=0;exitDy=0;" edge="1" parent="1" source="XKMVD-KwKPAGE6R3IPx5-67">
          <mxGeometry relative="1" as="geometry">
            <mxPoint x="860" y="309.97" as="targetPoint" />
          </mxGeometry>
        </mxCell>
        <mxCell id="XKMVD-KwKPAGE6R3IPx5-122" value="" style="edgeStyle=orthogonalEdgeStyle;rounded=0;orthogonalLoop=1;jettySize=auto;html=1;" edge="1" parent="1" source="XKMVD-KwKPAGE6R3IPx5-67" target="XKMVD-KwKPAGE6R3IPx5-121">
          <mxGeometry relative="1" as="geometry" />
        </mxCell>
        <mxCell id="XKMVD-KwKPAGE6R3IPx5-138" style="edgeStyle=orthogonalEdgeStyle;rounded=0;orthogonalLoop=1;jettySize=auto;html=1;exitX=0.5;exitY=0;exitDx=0;exitDy=0;entryX=0;entryY=0.5;entryDx=0;entryDy=0;" edge="1" parent="1" source="XKMVD-KwKPAGE6R3IPx5-67" target="XKMVD-KwKPAGE6R3IPx5-124">
          <mxGeometry relative="1" as="geometry" />
        </mxCell>
        <mxCell id="XKMVD-KwKPAGE6R3IPx5-67" value="&lt;font style=&quot;font-size: 9px;&quot;&gt;Light array value&lt;/font&gt;" style="rhombus;whiteSpace=wrap;html=1;rounded=1;" vertex="1" parent="1">
          <mxGeometry x="825" y="209.97" width="80" height="80" as="geometry" />
        </mxCell>
        <mxCell id="XKMVD-KwKPAGE6R3IPx5-69" value="NO" style="text;html=1;align=center;verticalAlign=middle;whiteSpace=wrap;rounded=0;" vertex="1" parent="1">
          <mxGeometry x="815" y="460" width="75" height="30" as="geometry" />
        </mxCell>
        <mxCell id="XKMVD-KwKPAGE6R3IPx5-71" value="NO CHANGE" style="text;html=1;align=center;verticalAlign=middle;whiteSpace=wrap;rounded=0;" vertex="1" parent="1">
          <mxGeometry x="730" y="267.47" width="75" height="30" as="geometry" />
        </mxCell>
        <mxCell id="XKMVD-KwKPAGE6R3IPx5-101" style="edgeStyle=orthogonalEdgeStyle;rounded=0;orthogonalLoop=1;jettySize=auto;html=1;exitX=0.5;exitY=0;exitDx=0;exitDy=0;" edge="1" parent="1">
          <mxGeometry relative="1" as="geometry">
            <mxPoint x="330" y="69.97" as="targetPoint" />
            <mxPoint x="170" y="79.97" as="sourcePoint" />
            <Array as="points">
              <mxPoint x="170" y="29.97" />
              <mxPoint x="330" y="29.97" />
            </Array>
          </mxGeometry>
        </mxCell>
        <mxCell id="XKMVD-KwKPAGE6R3IPx5-82" value="CANCEL?" style="rhombus;whiteSpace=wrap;html=1;rounded=1;" vertex="1" parent="1">
          <mxGeometry x="130" y="60" width="80" height="80" as="geometry" />
        </mxCell>
        <mxCell id="XKMVD-KwKPAGE6R3IPx5-88" value="YES" style="text;html=1;align=center;verticalAlign=middle;whiteSpace=wrap;rounded=0;" vertex="1" parent="1">
          <mxGeometry x="110" y="30" width="75" height="30" as="geometry" />
        </mxCell>
        <mxCell id="XKMVD-KwKPAGE6R3IPx5-90" value="NO" style="text;html=1;align=center;verticalAlign=middle;whiteSpace=wrap;rounded=0;" vertex="1" parent="1">
          <mxGeometry x="55" y="110" width="75" height="30" as="geometry" />
        </mxCell>
        <mxCell id="XKMVD-KwKPAGE6R3IPx5-107" style="edgeStyle=orthogonalEdgeStyle;rounded=0;orthogonalLoop=1;jettySize=auto;html=1;exitX=0;exitY=0.5;exitDx=0;exitDy=0;entryX=0;entryY=0.75;entryDx=0;entryDy=0;" edge="1" parent="1" source="XKMVD-KwKPAGE6R3IPx5-91" target="kvbrF2QY3DVPnfHmgTct-19">
          <mxGeometry relative="1" as="geometry" />
        </mxCell>
        <mxCell id="XKMVD-KwKPAGE6R3IPx5-113" style="edgeStyle=orthogonalEdgeStyle;rounded=0;orthogonalLoop=1;jettySize=auto;html=1;exitX=1;exitY=0.5;exitDx=0;exitDy=0;entryX=0;entryY=0.5;entryDx=0;entryDy=0;" edge="1" parent="1" source="XKMVD-KwKPAGE6R3IPx5-91" target="XKMVD-KwKPAGE6R3IPx5-1">
          <mxGeometry relative="1" as="geometry" />
        </mxCell>
        <mxCell id="XKMVD-KwKPAGE6R3IPx5-116" style="edgeStyle=orthogonalEdgeStyle;rounded=0;orthogonalLoop=1;jettySize=auto;html=1;exitX=0.5;exitY=1;exitDx=0;exitDy=0;entryX=0.5;entryY=0;entryDx=0;entryDy=0;" edge="1" parent="1" source="XKMVD-KwKPAGE6R3IPx5-91" target="XKMVD-KwKPAGE6R3IPx5-115">
          <mxGeometry relative="1" as="geometry" />
        </mxCell>
        <mxCell id="XKMVD-KwKPAGE6R3IPx5-91" value="&lt;font style=&quot;font-size: 11px;&quot;&gt;SCHEDULE&lt;/font&gt;?" style="rhombus;whiteSpace=wrap;html=1;rounded=1;" vertex="1" parent="1">
          <mxGeometry x="290" y="387.5" width="80" height="80" as="geometry" />
        </mxCell>
        <mxCell id="XKMVD-KwKPAGE6R3IPx5-96" style="edgeStyle=orthogonalEdgeStyle;rounded=0;orthogonalLoop=1;jettySize=auto;html=1;exitX=0;exitY=0.5;exitDx=0;exitDy=0;" edge="1" parent="1">
          <mxGeometry relative="1" as="geometry">
            <mxPoint x="470" y="530" as="targetPoint" />
            <mxPoint x="530" y="427.5" as="sourcePoint" />
          </mxGeometry>
        </mxCell>
        <mxCell id="XKMVD-KwKPAGE6R3IPx5-99" style="edgeStyle=orthogonalEdgeStyle;rounded=0;orthogonalLoop=1;jettySize=auto;html=1;exitX=0.5;exitY=0;exitDx=0;exitDy=0;entryX=0.5;entryY=0;entryDx=0;entryDy=0;" edge="1" parent="1" source="XKMVD-KwKPAGE6R3IPx5-94" target="kvbrF2QY3DVPnfHmgTct-3">
          <mxGeometry relative="1" as="geometry" />
        </mxCell>
        <mxCell id="XKMVD-KwKPAGE6R3IPx5-94" value="RESET?" style="rhombus;whiteSpace=wrap;html=1;rounded=1;" vertex="1" parent="1">
          <mxGeometry x="500" y="387.5" width="80" height="80" as="geometry" />
        </mxCell>
        <mxCell id="XKMVD-KwKPAGE6R3IPx5-97" value="NO" style="text;html=1;align=center;verticalAlign=middle;whiteSpace=wrap;rounded=0;" vertex="1" parent="1">
          <mxGeometry x="440" y="400" width="75" height="30" as="geometry" />
        </mxCell>
        <mxCell id="XKMVD-KwKPAGE6R3IPx5-98" value="YES" style="text;html=1;align=center;verticalAlign=middle;whiteSpace=wrap;rounded=0;" vertex="1" parent="1">
          <mxGeometry x="525" y="355" width="75" height="30" as="geometry" />
        </mxCell>
        <mxCell id="XKMVD-KwKPAGE6R3IPx5-102" style="edgeStyle=orthogonalEdgeStyle;rounded=0;orthogonalLoop=1;jettySize=auto;html=1;exitX=0;exitY=0.5;exitDx=0;exitDy=0;" edge="1" parent="1" source="XKMVD-KwKPAGE6R3IPx5-82" target="XKMVD-KwKPAGE6R3IPx5-82">
          <mxGeometry relative="1" as="geometry" />
        </mxCell>
        <mxCell id="XKMVD-KwKPAGE6R3IPx5-104" value="BACK" style="text;html=1;align=center;verticalAlign=middle;whiteSpace=wrap;rounded=0;" vertex="1" parent="1">
          <mxGeometry x="185" y="370" width="75" height="30" as="geometry" />
        </mxCell>
        <mxCell id="XKMVD-KwKPAGE6R3IPx5-108" value="BACK" style="text;html=1;align=center;verticalAlign=middle;whiteSpace=wrap;rounded=0;" vertex="1" parent="1">
          <mxGeometry x="185" y="287.5" width="75" height="30" as="geometry" />
        </mxCell>
        <mxCell id="XKMVD-KwKPAGE6R3IPx5-110" value="BACK" style="text;html=1;align=center;verticalAlign=middle;whiteSpace=wrap;rounded=0;" vertex="1" parent="1">
          <mxGeometry x="185" y="205" width="75" height="30" as="geometry" />
        </mxCell>
        <mxCell id="XKMVD-KwKPAGE6R3IPx5-112" value="BACK" style="text;html=1;align=center;verticalAlign=middle;whiteSpace=wrap;rounded=0;" vertex="1" parent="1">
          <mxGeometry x="185" y="130" width="75" height="30" as="geometry" />
        </mxCell>
        <mxCell id="XKMVD-KwKPAGE6R3IPx5-114" value="NO" style="text;html=1;align=center;verticalAlign=middle;whiteSpace=wrap;rounded=0;" vertex="1" parent="1">
          <mxGeometry x="362.5" y="400" width="75" height="30" as="geometry" />
        </mxCell>
        <mxCell id="XKMVD-KwKPAGE6R3IPx5-118" style="edgeStyle=orthogonalEdgeStyle;rounded=0;orthogonalLoop=1;jettySize=auto;html=1;exitX=1.014;exitY=0.502;exitDx=0;exitDy=0;exitPerimeter=0;" edge="1" parent="1" source="XKMVD-KwKPAGE6R3IPx5-115">
          <mxGeometry relative="1" as="geometry">
            <mxPoint x="425" y="530" as="targetPoint" />
            <mxPoint x="395" y="530" as="sourcePoint" />
          </mxGeometry>
        </mxCell>
        <mxCell id="XKMVD-KwKPAGE6R3IPx5-119" style="edgeStyle=orthogonalEdgeStyle;rounded=0;orthogonalLoop=1;jettySize=auto;html=1;exitX=0;exitY=0.75;exitDx=0;exitDy=0;entryX=-0.007;entryY=0.161;entryDx=0;entryDy=0;entryPerimeter=0;" edge="1" parent="1" source="XKMVD-KwKPAGE6R3IPx5-115" target="XKMVD-KwKPAGE6R3IPx5-115">
          <mxGeometry relative="1" as="geometry">
            <mxPoint x="260" y="500" as="targetPoint" />
            <Array as="points">
              <mxPoint x="250" y="545" />
              <mxPoint x="250" y="510" />
            </Array>
          </mxGeometry>
        </mxCell>
        <mxCell id="XKMVD-KwKPAGE6R3IPx5-115" value="TIME FOR EACH LEVEL?" style="whiteSpace=wrap;html=1;rounded=1;" vertex="1" parent="1">
          <mxGeometry x="270" y="500" width="120" height="60" as="geometry" />
        </mxCell>
        <mxCell id="XKMVD-KwKPAGE6R3IPx5-117" value="YES" style="text;html=1;align=center;verticalAlign=middle;whiteSpace=wrap;rounded=0;" vertex="1" parent="1">
          <mxGeometry x="270" y="467.5" width="75" height="30" as="geometry" />
        </mxCell>
        <mxCell id="XKMVD-KwKPAGE6R3IPx5-120" value="if not time format" style="text;html=1;align=center;verticalAlign=middle;whiteSpace=wrap;rounded=0;" vertex="1" parent="1">
          <mxGeometry x="185" y="507.5" width="70" height="45" as="geometry" />
        </mxCell>
        <mxCell id="XKMVD-KwKPAGE6R3IPx5-136" style="edgeStyle=orthogonalEdgeStyle;rounded=0;orthogonalLoop=1;jettySize=auto;html=1;exitX=1;exitY=0.5;exitDx=0;exitDy=0;" edge="1" parent="1" source="XKMVD-KwKPAGE6R3IPx5-121">
          <mxGeometry relative="1" as="geometry">
            <mxPoint x="1105" y="400" as="targetPoint" />
            <mxPoint x="1090" y="249.97000000000003" as="sourcePoint" />
            <Array as="points">
              <mxPoint x="1105" y="250" />
            </Array>
          </mxGeometry>
        </mxCell>
        <mxCell id="XKMVD-KwKPAGE6R3IPx5-121" value="Roll up shade by 1 level" style="whiteSpace=wrap;html=1;rounded=1;" vertex="1" parent="1">
          <mxGeometry x="965" y="219.97" width="120" height="60" as="geometry" />
        </mxCell>
        <mxCell id="XKMVD-KwKPAGE6R3IPx5-123" value="-1" style="text;html=1;align=center;verticalAlign=middle;whiteSpace=wrap;rounded=0;" vertex="1" parent="1">
          <mxGeometry x="890" y="219.97" width="75" height="30" as="geometry" />
        </mxCell>
        <mxCell id="XKMVD-KwKPAGE6R3IPx5-137" style="edgeStyle=orthogonalEdgeStyle;rounded=0;orthogonalLoop=1;jettySize=auto;html=1;exitX=1;exitY=0.5;exitDx=0;exitDy=0;" edge="1" parent="1">
          <mxGeometry relative="1" as="geometry">
            <mxPoint x="1105" y="250" as="targetPoint" />
            <mxPoint x="1080" y="122.47000000000008" as="sourcePoint" />
          </mxGeometry>
        </mxCell>
        <mxCell id="XKMVD-KwKPAGE6R3IPx5-124" value="Roll down shade by 1 level" style="whiteSpace=wrap;html=1;rounded=1;" vertex="1" parent="1">
          <mxGeometry x="965" y="92.47" width="120" height="60" as="geometry" />
        </mxCell>
        <mxCell id="XKMVD-KwKPAGE6R3IPx5-128" value="" style="edgeStyle=orthogonalEdgeStyle;rounded=0;orthogonalLoop=1;jettySize=auto;html=1;entryX=0.5;entryY=1;entryDx=0;entryDy=0;" edge="1" parent="1" source="XKMVD-KwKPAGE6R3IPx5-126" target="XKMVD-KwKPAGE6R3IPx5-67">
          <mxGeometry relative="1" as="geometry" />
        </mxCell>
        <mxCell id="XKMVD-KwKPAGE6R3IPx5-131" value="" style="edgeStyle=orthogonalEdgeStyle;rounded=0;orthogonalLoop=1;jettySize=auto;html=1;" edge="1" parent="1" source="XKMVD-KwKPAGE6R3IPx5-126" target="XKMVD-KwKPAGE6R3IPx5-130">
          <mxGeometry relative="1" as="geometry" />
        </mxCell>
        <mxCell id="XKMVD-KwKPAGE6R3IPx5-126" value="&lt;font style=&quot;font-size: 9px;&quot;&gt;Schedule set?&lt;/font&gt;" style="rhombus;whiteSpace=wrap;html=1;rounded=1;" vertex="1" parent="1">
          <mxGeometry x="825" y="362.5" width="80" height="80" as="geometry" />
        </mxCell>
        <mxCell id="XKMVD-KwKPAGE6R3IPx5-129" value="NO" style="text;html=1;align=center;verticalAlign=middle;whiteSpace=wrap;rounded=0;" vertex="1" parent="1">
          <mxGeometry x="810" y="332.5" width="75" height="30" as="geometry" />
        </mxCell>
        <mxCell id="XKMVD-KwKPAGE6R3IPx5-133" style="edgeStyle=orthogonalEdgeStyle;rounded=0;orthogonalLoop=1;jettySize=auto;html=1;exitX=1;exitY=0.5;exitDx=0;exitDy=0;entryX=1;entryY=0.5;entryDx=0;entryDy=0;" edge="1" parent="1" source="XKMVD-KwKPAGE6R3IPx5-130" target="XKMVD-KwKPAGE6R3IPx5-15">
          <mxGeometry relative="1" as="geometry">
            <mxPoint x="910" y="530" as="targetPoint" />
            <Array as="points">
              <mxPoint x="1105" y="403" />
              <mxPoint x="1105" y="530" />
            </Array>
          </mxGeometry>
        </mxCell>
        <mxCell id="XKMVD-KwKPAGE6R3IPx5-130" value="Roll shade based on set time" style="whiteSpace=wrap;html=1;rounded=1;" vertex="1" parent="1">
          <mxGeometry x="965" y="372.5" width="120" height="60" as="geometry" />
        </mxCell>
        <mxCell id="XKMVD-KwKPAGE6R3IPx5-132" value="YES" style="text;html=1;align=center;verticalAlign=middle;whiteSpace=wrap;rounded=0;" vertex="1" parent="1">
          <mxGeometry x="890" y="372.5" width="75" height="30" as="geometry" />
        </mxCell>
        <mxCell id="XKMVD-KwKPAGE6R3IPx5-139" value="+1" style="text;html=1;align=center;verticalAlign=middle;whiteSpace=wrap;rounded=0;" vertex="1" parent="1">
          <mxGeometry x="885" y="92.47" width="75" height="30" as="geometry" />
        </mxCell>
      </root>
    </mxGraphModel>
  </diagram>
</mxfile>
